<svg version="1.1" id="Layer_1" xmlns="http://www.w3.org/2000/svg" xmlns:xlink="http://www.w3.org/1999/xlink" x="0px" y="0px"
	 width="100%" viewBox="0 0 288 288" enable-background="new 0 0 288 288" xml:space="preserve">
<path fill="#000000" opacity="1.000000" stroke="none" 
	d="
M247.000000,289.000000 
	C240.645599,289.000000 234.291214,289.000000 227.614212,288.699432 
	C232.255707,284.663330 234.180359,278.725586 237.645096,273.906067 
	C239.683945,271.069977 238.866821,268.303162 235.405640,266.540649 
	C221.883957,259.655212 212.214493,248.907104 204.873062,235.841095 
	C204.062485,234.398438 203.633194,232.540710 201.540161,231.484039 
	C201.105774,234.399002 200.677780,236.843735 200.393112,239.305038 
	C200.123672,241.634644 200.846176,244.143494 198.565903,246.075363 
	C198.812698,218.215454 206.958542,191.923523 214.903900,165.576782 
	C215.206207,175.021042 211.932617,183.891327 210.326721,194.543930 
	C227.132095,189.402985 244.281570,189.427429 259.924957,182.919678 
	C259.645203,180.052582 257.884064,179.121689 256.658356,177.848083 
	C248.477722,169.347855 239.354172,161.720322 233.135223,151.437531 
	C226.309677,140.151733 223.463242,129.076019 233.499420,117.995285 
	C234.948990,116.394852 235.487381,114.010292 233.237518,112.803757 
	C229.528702,110.814812 225.521774,109.381783 221.332626,107.582169 
	C220.707886,110.834770 221.600998,113.363510 221.867249,115.952904 
	C223.128601,128.220261 222.928070,140.078781 211.557220,148.358047 
	C210.458557,149.158005 209.624710,150.182587 209.427536,151.609772 
	C208.744858,156.550888 206.191742,160.657013 203.475601,164.659134 
	C195.957642,175.736557 191.889694,188.007263 190.149277,201.228119 
	C189.279282,207.836884 187.426849,214.282318 184.648010,221.902969 
	C182.264114,213.910248 186.231430,207.177475 183.945297,200.358795 
	C180.914536,202.075958 179.307983,204.245041 177.701263,206.305832 
	C172.788773,212.606689 168.274796,219.231064 163.165787,225.362976 
	C155.010468,235.151108 154.924805,234.938171 165.196274,242.418884 
	C167.987381,244.451645 171.775818,245.667374 172.896851,249.611053 
	C171.170258,251.728516 167.503983,251.052460 167.208984,254.747375 
	C166.296356,266.177460 165.091431,277.584198 164.000000,289.000000 
	C160.969406,289.000000 157.938812,289.000000 154.467316,288.641541 
	C157.117508,284.487701 157.893250,279.994751 158.154800,275.269196 
	C158.469696,269.579956 160.294662,264.183350 161.693665,258.705811 
	C162.030655,257.386505 163.285095,255.976074 162.657455,255.389908 
	C151.433762,252.269150 146.342224,259.082611 141.338348,266.179626 
	C139.712051,268.486176 137.711670,270.525146 135.972168,272.756500 
	C130.000931,280.416443 129.993683,280.806427 135.000000,289.000000 
	C132.299988,289.000000 129.599976,289.000000 126.383667,288.616760 
	C124.159882,283.587738 123.069794,279.018494 126.241974,274.436707 
	C128.055664,271.817169 130.148132,269.485168 132.323914,267.186859 
	C136.043121,263.258209 139.683990,259.255432 143.647247,254.970825 
	C137.183380,250.887756 131.909042,246.683334 127.680130,241.211227 
	C125.565514,238.474991 123.761284,240.263489 122.963470,242.576630 
	C117.691193,257.862823 106.297821,271.319519 109.000000,289.000000 
	C106.629440,289.000000 104.258888,289.000000 101.372902,288.535889 
	C99.880882,275.403687 100.770546,263.226624 108.420494,252.271896 
	C112.022125,247.114365 114.792923,241.367798 117.812981,235.818909 
	C118.612831,234.349319 120.056335,232.751602 118.131615,230.440445 
	C112.895775,232.302261 110.461540,236.990662 108.110283,241.341400 
	C99.573624,257.137573 91.344894,273.100189 83.000000,289.000000 
	C80.299988,289.000000 77.599968,289.000000 74.532036,288.659485 
	C77.856125,281.619293 81.646149,274.971466 85.221848,268.210236 
	C96.091171,247.657578 106.182533,226.523483 128.615204,214.375916 
	C122.217140,210.809174 116.473679,209.817505 110.859459,208.483475 
	C108.907562,208.019669 107.213387,208.683029 106.420982,210.756699 
	C100.110878,227.270081 88.212669,239.998245 77.564919,253.600006 
	C69.300323,264.157471 62.413486,275.493835 60.000000,289.000000 
	C58.933331,289.000000 57.866661,289.000000 56.541187,288.659119 
	C57.845165,282.017700 59.680702,275.833069 62.842026,270.088501 
	C68.081970,260.566803 74.678101,252.028961 81.521660,243.644211 
	C89.516586,233.848831 97.371635,223.954041 103.083916,212.556656 
	C104.811913,209.108887 104.544426,207.105286 100.335205,206.111099 
	C96.637810,205.237839 93.029175,203.871613 89.502922,202.426437 
	C86.422554,201.164001 84.657562,202.120041 83.893303,205.117966 
	C81.143326,215.905045 74.597389,224.912384 70.081360,234.867813 
	C68.645790,238.032471 66.298203,240.215958 63.602943,242.240860 
	C53.709568,249.673599 44.980576,258.128082 38.892311,269.143616 
	C35.395733,275.470032 33.086205,282.165955 31.000000,289.000000 
	C28.629442,289.000000 26.258884,289.000000 23.359745,288.608887 
	C24.470375,278.344788 28.926252,269.616333 34.063866,261.223419 
	C39.202339,252.829132 45.482712,245.262711 51.929932,237.853622 
	C54.159847,235.291016 54.997517,233.373276 52.252792,230.226166 
	C48.438290,225.852448 45.860458,220.515503 43.623112,215.116928 
	C35.536964,195.605484 31.586035,175.352890 33.020912,153.964600 
	C22.181198,169.765991 8.741263,183.446045 1.000000,201.000000 
	C1.000000,194.978851 1.000000,188.957703 1.133292,182.133820 
	C7.193579,164.284180 15.275833,148.242920 24.043266,132.521545 
	C24.945065,130.904495 25.633524,129.246185 25.614592,127.330780 
	C25.439957,109.661369 29.634451,92.762054 34.693336,76.015823 
	C41.357059,53.957157 52.864056,34.979900 70.623055,20.083563 
	C78.860481,13.173976 88.111473,9.171879 99.196030,11.687745 
	C100.671227,12.022572 102.907585,12.537074 103.075951,10.804116 
	C103.554977,5.873807 107.759850,6.149444 110.671532,4.999657 
	C114.970467,3.302059 119.543617,2.298891 124.000000,1.000001 
	C138.354233,1.000000 152.708450,1.000000 167.858887,1.151936 
	C188.449295,7.888164 206.309570,18.018589 222.566391,30.993429 
	C224.889313,32.847374 226.826797,33.667755 229.741013,32.570023 
	C235.957016,30.228569 241.482727,32.127079 246.569244,35.907623 
	C247.894562,36.892662 249.217743,37.888866 250.607056,38.778172 
	C260.359039,45.020447 268.970093,52.630768 276.281158,61.535511 
	C281.682556,68.114342 281.342041,68.393921 289.000000,66.000000 
	C289.000000,133.354233 289.000000,200.708450 288.721375,268.342346 
	C281.030701,259.528473 274.807343,249.522903 266.233704,241.294846 
	C261.314301,236.573730 261.808441,236.058823 255.352753,240.522980 
	C256.530914,246.242462 262.017242,243.883957 265.600677,245.555542 
	C263.710052,248.885254 261.023102,250.171188 257.924805,249.241211 
	C253.777542,247.996368 252.179443,250.039749 250.877762,253.352020 
	C246.664948,264.071899 243.337662,274.871307 246.825943,286.530823 
	C247.056717,287.302185 246.949829,288.174591 247.000000,289.000000 
M34.477325,138.646805 
	C32.245907,137.020309 32.320320,134.061035 30.492289,130.896301 
	C22.524677,146.791687 13.848738,161.241562 8.344142,177.314758 
	C16.253847,168.737595 23.772863,159.916138 31.222544,151.036514 
	C34.117374,147.586029 35.530643,143.589294 35.304459,138.415878 
	C37.130962,133.793533 34.846680,129.427994 34.604755,123.758858 
	C33.661362,129.689407 35.600655,134.321945 34.477325,138.646805 
M103.449387,148.495590 
	C102.316666,155.443069 97.316063,160.154587 93.523949,165.550217 
	C91.971092,167.759720 89.794556,169.305435 87.298454,170.424789 
	C84.913010,171.494507 82.751495,171.347610 80.821823,169.560242 
	C78.780197,167.669159 78.279358,165.348038 79.158012,162.719849 
	C79.925117,160.425293 81.563980,158.762192 83.211334,157.098740 
	C85.235619,155.054672 87.238129,152.989075 90.019943,150.145905 
	C81.368187,148.997681 73.855949,148.523575 66.867256,145.568634 
	C65.456070,144.971985 63.680565,143.774139 62.184059,145.190475 
	C60.616287,146.674271 61.508347,148.569214 61.900703,150.351288 
	C63.686207,158.460968 66.562828,166.326385 67.358582,174.657089 
	C67.544212,176.600449 68.728546,178.034149 69.867645,179.456985 
	C76.129921,187.279053 83.744255,193.204147 93.191681,196.872513 
	C104.409492,201.228302 116.018242,204.074326 127.734055,206.568558 
	C131.785385,207.431046 136.179504,208.941208 140.026154,207.128281 
	C153.533493,200.762314 167.492798,195.202515 178.271957,184.081848 
	C190.652496,171.309052 199.225372,155.337448 212.763550,143.571289 
	C213.708679,142.749878 214.253098,141.360260 214.742249,140.138168 
	C219.019516,129.451706 218.749100,118.652748 215.195404,107.875755 
	C214.193405,104.837074 212.585861,101.667366 208.895721,101.577507 
	C205.358185,101.491364 203.388687,104.364220 201.815094,107.171165 
	C201.101120,108.444748 200.600540,109.932678 200.393967,111.379189 
	C199.594604,116.976250 198.955475,122.596146 198.250259,128.206741 
	C198.031845,129.944397 197.978241,131.783493 196.009781,132.730194 
	C194.231659,130.727173 195.111847,128.687317 195.288315,126.803406 
	C195.662766,122.805794 195.801315,118.853920 195.129379,114.857193 
	C193.282822,103.873856 191.361282,92.896263 189.887299,81.860588 
	C189.309448,77.534286 187.313354,74.970123 183.603989,73.061073 
	C178.126999,70.242310 172.690033,67.308464 167.457336,64.066391 
	C164.312241,62.117748 161.427124,59.367405 162.334473,55.135372 
	C163.215530,51.025879 166.768021,49.554707 170.428741,48.581612 
	C175.980347,47.105885 181.323135,48.232754 186.625153,49.958824 
	C188.416702,50.542053 190.183640,52.023460 192.673859,50.209961 
	C191.577148,44.860580 187.702896,41.178627 184.237122,37.288074 
	C179.549393,32.025799 181.363983,26.475710 188.334686,24.607302 
	C191.049316,23.879679 193.625153,24.680559 196.265198,24.722643 
	C197.546249,24.743067 199.162766,25.201588 199.730682,23.546545 
	C200.331131,21.796696 199.111526,20.591913 197.720184,19.985971 
	C195.444794,18.995028 193.066879,18.192692 190.671112,17.532589 
	C175.733795,13.416916 160.448669,11.058990 145.178497,8.630497 
	C130.267166,6.259068 116.052246,7.722353 102.822433,15.720262 
	C100.420197,17.172504 99.128082,19.703384 96.114639,20.630384 
	C75.926170,26.840807 61.633682,40.252975 51.572578,58.415825 
	C44.726627,70.774498 41.441017,84.408028 38.354237,98.052132 
	C36.201839,107.566086 36.410835,117.152100 37.623146,126.810066 
	C38.427208,133.215698 38.855274,139.709106 38.875046,146.164993 
	C38.934444,165.560791 40.592323,184.696747 46.966984,203.173492 
	C47.503216,204.727753 47.341923,206.933868 50.402882,207.377975 
	C51.193008,194.772995 49.874199,182.165314 52.040890,169.741837 
	C54.050125,181.332687 57.913536,192.350937 59.712639,203.812210 
	C60.040119,205.898438 59.946674,207.780457 58.175156,209.267776 
	C55.991364,211.101227 56.754879,212.791733 58.656483,214.161819 
	C61.111576,215.930710 62.618298,218.048584 62.495796,221.243774 
	C62.430866,222.937256 62.883446,224.759018 64.979088,225.021896 
	C67.105186,225.288620 67.805733,223.395081 68.403671,221.933044 
	C71.364296,214.693924 74.157776,207.386658 77.072212,200.128311 
	C78.141106,197.466263 77.185005,195.628387 75.000916,194.158783 
	C65.188461,187.556213 61.997574,177.703308 61.683212,166.564682 
	C61.589790,163.254303 60.783169,160.378845 58.897678,157.693771 
	C50.950317,146.376144 51.588139,134.016815 54.331303,120.853256 
	C56.743698,123.024315 58.027592,125.997208 61.427834,125.817291 
	C63.519199,120.950310 65.520866,116.012733 67.757332,111.183899 
	C69.293480,107.867142 67.855934,106.730377 64.828720,105.977043 
	C62.550217,105.410027 59.686146,106.145584 58.028301,103.325615 
	C60.533672,100.328087 63.921703,100.810242 67.169472,100.886696 
	C69.142754,100.933144 71.491241,101.611542 72.384621,99.160576 
	C75.160683,91.544540 79.229301,84.367058 79.720322,75.975098 
	C80.456841,63.387791 82.799156,51.191048 90.109001,40.520969 
	C91.312828,38.763752 92.406471,36.589977 96.263947,35.899963 
	C85.392082,54.827518 85.250252,74.683914 86.185776,94.384193 
	C84.389221,95.274216 84.074799,92.733925 82.546570,93.855812 
	C81.690849,95.636047 81.215981,97.738625 80.372978,99.714134 
	C76.623833,108.499931 71.376549,116.379990 66.392738,124.453911 
	C61.917179,131.704437 62.444958,132.603546 70.598618,134.772797 
	C77.029228,136.483627 83.616989,137.705750 89.899605,139.838287 
	C94.841263,141.515656 101.127708,141.400528 103.449387,148.495590 
M211.283905,41.212372 
	C206.721451,35.658112 201.212097,31.538670 194.087082,29.870985 
	C191.638962,29.297974 188.745178,28.364460 187.231277,30.909077 
	C185.739685,33.416187 188.350784,35.171741 189.884949,36.762291 
	C197.390579,44.543762 205.851807,51.358250 212.707489,59.821514 
	C215.582794,63.371048 218.880264,66.441338 217.246552,71.721802 
	C221.162674,73.221001 225.559982,72.436928 228.533813,75.713341 
	C231.463409,78.941025 230.908920,83.538254 233.503387,87.027054 
	C237.143890,91.922440 236.960663,94.487938 234.141434,97.260704 
	C232.314926,96.287888 232.114944,94.408455 231.521439,92.702415 
	C230.373199,89.401741 229.211151,86.095848 227.829651,82.889122 
	C226.433105,79.647461 220.934921,77.223381 218.268906,78.827789 
	C214.514862,81.086983 214.883224,84.549225 216.354950,88.060371 
	C216.675613,88.825348 217.123932,89.536949 217.515625,90.271988 
	C224.132721,102.689102 234.887939,108.015556 248.541870,108.735840 
	C252.974365,108.969666 256.229492,107.803436 258.740875,104.030548 
	C262.337616,98.627151 266.543701,93.590584 269.017303,87.523582 
	C270.248718,84.503288 274.570862,87.022804 275.497314,83.250702 
	C276.235107,80.246750 272.790619,78.293564 274.367035,75.173485 
	C275.588348,72.756195 274.294159,70.264389 272.800018,68.177879 
	C269.497131,63.565498 265.510010,59.634624 260.802948,56.208904 
	C259.616547,57.894989 261.265686,60.170181 259.187836,61.342281 
	C257.027740,60.206997 257.511566,57.849014 256.864380,56.105701 
	C255.397369,52.154205 253.022537,49.139214 249.257584,47.261646 
	C247.999649,46.634304 246.698029,46.479340 245.545639,47.569370 
	C244.710342,48.359455 244.550781,49.344673 245.072586,50.300079 
	C248.063293,55.775826 248.595840,61.890038 249.400452,68.390327 
	C253.174500,66.387688 257.302307,67.569801 260.432404,64.654602 
	C261.483490,70.264572 250.114090,82.663803 244.342072,82.786835 
	C238.473373,82.911911 228.724365,72.762817 228.755539,65.880157 
	C232.739670,66.766197 235.075592,69.387245 237.123978,72.364410 
	C238.757233,74.738243 240.750656,76.639679 243.756363,75.303772 
	C246.805695,73.948494 246.602753,71.068649 245.938538,68.371048 
	C244.708572,63.375713 244.125229,58.146797 238.030441,55.901443 
	C236.279938,55.256550 235.236649,52.568699 232.661987,53.995689 
	C230.211899,55.353649 229.350357,57.556190 229.399658,60.277256 
	C229.421143,61.462872 230.584961,62.868561 228.220291,64.263634 
	C222.752502,56.806713 217.238754,49.287102 211.283905,41.212372 
M208.490341,231.043976 
	C215.533936,243.249619 224.099442,253.972794 237.109421,261.184357 
	C237.626556,259.042114 237.965775,257.636932 238.228897,256.546906 
	C240.006561,255.134109 240.477219,258.314484 242.211823,256.883575 
	C244.630432,252.527466 246.582809,247.601929 251.321854,244.387527 
	C253.983383,242.582260 252.742294,239.861130 250.379028,238.201569 
	C245.474335,234.757355 243.015762,229.797211 241.167648,224.326492 
	C238.629776,216.813965 237.558807,209.131271 237.907806,201.222672 
	C238.043747,198.141861 237.227921,195.843613 233.396393,196.478470 
	C226.342361,197.647232 219.286026,198.802505 212.236496,199.997803 
	C210.586182,200.277634 208.768478,200.579529 208.243576,202.496109 
	C205.700943,211.780136 200.657074,221.078079 208.490341,231.043976 
M136.681305,243.816772 
	C139.175613,246.015244 141.648422,248.238861 144.175873,250.398529 
	C145.061798,251.155548 146.070084,251.883133 147.310669,251.021072 
	C148.260223,250.361252 148.452271,249.331161 148.173920,248.350693 
	C147.357986,245.476486 148.119507,242.737991 148.737259,239.988251 
	C149.517380,236.515549 148.911972,233.570648 146.442795,230.774353 
	C143.813889,227.797195 140.941574,224.698380 139.463821,221.120560 
	C137.270523,215.810394 134.411346,216.457474 130.711243,218.644531 
	C129.948807,220.236481 132.299026,221.395172 131.005524,223.022354 
	C128.973541,223.256790 126.381721,220.902466 124.793335,223.759644 
	C123.451698,226.172974 125.236153,228.191971 126.234665,230.249603 
	C128.673935,235.276215 132.660995,239.116669 136.681305,243.816772 
M253.813492,233.631454 
	C255.315796,234.667557 256.815002,235.955170 258.745789,234.680740 
	C259.736237,234.027039 259.566284,232.917786 259.215515,231.955429 
	C255.079056,220.607071 256.256073,208.323944 252.979874,196.793381 
	C251.632584,192.051620 250.455490,191.333618 246.402496,194.259918 
	C244.266861,195.801865 243.306992,197.879807 243.486328,200.254486 
	C244.367050,211.916931 245.933304,223.412582 253.813492,233.631454 
M196.925430,73.499374 
	C199.166458,74.577148 201.520325,75.472092 203.624756,76.771164 
	C207.869125,79.391212 210.338104,78.073776 212.037354,72.851616 
	C207.254990,72.814499 207.153625,62.944706 199.936035,67.995239 
	C194.727341,57.879265 175.110168,51.087818 168.891815,58.054119 
	C177.625046,63.955830 187.117035,68.255981 196.925430,73.499374 
M204.528671,99.534355 
	C206.521103,97.658867 209.507889,98.122276 212.316895,96.471886 
	C208.273636,92.034111 209.256790,84.017624 200.845001,83.187332 
	C200.845001,89.490349 200.845001,95.437988 200.845001,102.002319 
	C202.342972,101.007935 203.159012,100.466232 204.528671,99.534355 
M172.041336,195.576736 
	C170.386978,198.455429 168.992599,201.490585 166.571686,203.883652 
	C165.232712,205.207184 164.043182,206.793976 165.494965,208.705612 
	C167.108124,210.829697 168.635239,209.372772 170.238144,208.450485 
	C174.188858,206.177292 176.815231,202.863205 177.985092,198.517075 
	C178.429245,196.867004 179.522293,194.678955 177.597458,193.435165 
	C175.637527,192.168701 173.789185,193.245468 172.041336,195.576736 
M152.401611,243.722946 
	C152.900223,249.926743 156.331436,251.503357 165.252029,249.105515 
	C160.264160,246.077881 156.369720,242.407837 152.382339,238.613144 
	C152.382339,240.333664 152.382339,241.656464 152.401611,243.722946 
M182.476364,189.369446 
	C181.292328,192.799728 183.708694,192.953751 186.188614,193.640549 
	C186.710342,190.391861 188.505142,187.643738 187.055435,184.402924 
	C184.679062,185.355896 183.991959,187.323135 182.476364,189.369446 
M197.814224,81.646965 
	C196.710693,80.119530 195.410309,78.999619 193.050644,79.425232 
	C194.083252,83.265244 195.040100,86.968903 197.507324,91.414223 
	C197.729675,87.557808 197.881577,84.923424 197.814224,81.646965 
M86.584259,19.686123 
	C90.738091,20.837053 93.681557,18.758581 96.461456,16.213154 
	C92.587456,15.649394 89.091522,16.199299 86.584259,19.686123 
M154.764786,227.234299 
	C154.205688,223.879074 151.775894,223.672867 149.276184,224.331589 
	C147.574936,224.779892 147.865570,226.331253 148.664505,227.520340 
	C150.463120,230.197266 152.468750,230.272171 154.764786,227.234299 
M236.976334,41.020081 
	C235.440857,40.398472 233.660950,39.370312 233.087555,41.955444 
	C232.825745,43.135860 233.784470,44.315651 235.084915,44.384438 
	C237.064957,44.489159 238.397400,43.747410 236.976334,41.020081 
z"/>
<path fill="#000000" opacity="1.000000" stroke="none" 
	d="
M1.000000,237.463181 
	C2.368525,237.866089 2.767943,239.358078 3.371169,240.708817 
	C7.609397,250.198868 13.750695,257.666718 24.276455,260.537537 
	C25.186470,260.785736 26.293623,260.955963 26.521328,262.961395 
	C15.943664,262.889008 8.055542,258.081970 1.277746,250.184464 
	C1.000000,245.975449 1.000000,241.950912 1.000000,237.463181 
z"/>
<path fill="#000000" opacity="1.000000" stroke="none" 
	d="
M207.412247,284.069214 
	C208.269913,284.715179 209.306854,284.632874 209.509521,285.761139 
	C207.681473,287.579681 205.943619,286.297455 204.813400,285.103119 
	C193.734375,273.395844 187.381439,259.889191 189.077316,242.492447 
	C192.382645,245.883209 191.187393,249.681152 192.200378,252.831161 
	C193.437393,256.677856 192.521332,261.027283 197.579193,263.583740 
	C199.772049,264.692139 200.243271,269.405731 201.279968,272.553101 
	C202.634766,276.666260 203.684341,280.896851 207.412247,284.069214 
z"/>
<path fill="#000000" opacity="1.000000" stroke="none" 
	d="
M177.821365,242.007111 
	C178.971878,240.592346 179.901154,239.425812 181.473877,239.029114 
	C182.624115,244.054443 181.601151,245.521820 176.578217,246.179504 
	C175.425247,244.488632 177.009613,243.506317 177.821365,242.007111 
z"/>
<path fill="#000000" opacity="1.000000" stroke="none" 
	d="
M129.018616,58.972137 
	C130.358734,60.915207 131.450867,62.592823 132.645889,64.193611 
	C136.919708,69.918556 137.508499,70.032150 143.946808,67.074043 
	C145.884979,66.183548 147.875626,65.092072 150.262955,66.655457 
	C150.281998,70.716377 145.535889,70.911064 143.878479,74.741966 
	C153.900330,83.818153 166.613861,86.993538 179.317184,89.232414 
	C180.179977,91.649185 177.838562,91.032120 177.449310,92.738121 
	C183.430084,96.568649 188.737289,101.360214 189.121109,109.531174 
	C186.556458,109.902840 185.355072,106.904099 181.885452,107.965164 
	C183.740143,113.165627 183.668686,118.706863 182.825470,124.185951 
	C181.540924,132.532806 177.433212,138.796310 168.946335,141.388641 
	C162.538208,143.346024 157.391861,141.454849 154.051712,135.643143 
	C149.450928,127.637901 147.449387,119.028374 149.329559,109.173904 
	C144.738892,110.848717 143.880356,114.348602 142.771927,117.694458 
	C142.331894,119.022667 142.495972,120.968376 140.406113,121.010201 
	C138.391052,121.050522 137.506943,119.443680 136.982635,117.857468 
	C135.384415,113.022430 136.947311,108.680443 139.384460,104.545845 
	C144.378250,96.073997 152.152603,91.704041 161.754608,89.247536 
	C153.958054,86.448036 146.914368,82.403854 140.134918,77.854050 
	C137.738098,76.245499 136.113129,79.925362 133.158157,79.094185 
	C138.554993,68.621872 126.703316,66.994736 124.471588,60.370449 
	C122.148384,61.026196 122.294937,62.522362 122.136185,63.777374 
	C120.916092,73.422905 118.094955,82.613800 114.444763,91.591881 
	C111.689415,98.368965 109.073540,105.202873 106.409615,112.016983 
	C103.471138,119.533371 99.586197,126.480057 93.924438,132.300537 
	C92.127686,134.147659 90.450577,136.344223 86.870697,136.642380 
	C90.418953,130.639511 93.984650,125.155884 97.005463,119.386940 
	C104.187271,105.671623 107.440384,90.694916 110.397881,75.660988 
	C110.644424,74.407730 110.229813,73.026375 110.134811,71.703644 
	C109.561432,63.720211 109.318367,55.746181 110.347672,47.769314 
	C110.904495,43.454090 110.998161,39.138355 109.318504,34.971153 
	C108.669731,33.361549 108.296219,31.687634 110.202194,30.592594 
	C111.774307,29.689375 113.221771,30.323540 114.259613,31.476753 
	C118.120964,35.767391 122.049561,40.100555 123.068085,46.060181 
	C123.880356,50.813023 126.242004,54.769676 129.018616,58.972137 
M179.120422,123.563477 
	C180.645248,112.407936 177.962357,108.060112 166.504944,103.119125 
	C161.092651,100.785088 156.646011,102.468796 154.354599,107.897156 
	C151.283188,115.173355 151.473969,122.406433 154.854782,129.582794 
	C158.291870,136.878601 165.056976,139.175827 172.162445,135.336670 
	C176.510025,132.987625 178.356079,129.058792 179.120422,123.563477 
z"/>
<path fill="#000000" opacity="1.000000" stroke="none" 
	d="
M156.269501,161.350311 
	C154.885452,161.815018 153.763275,162.111343 152.628143,162.344452 
	C149.760040,162.933411 147.660126,164.377731 147.306519,167.478180 
	C146.932495,170.757812 149.272049,171.707062 151.821564,172.428696 
	C152.267746,172.554993 152.639267,172.945084 153.893478,173.773819 
	C146.385590,180.752945 138.456390,186.087021 128.299622,186.773407 
	C123.912842,187.069855 119.399109,185.986023 116.967751,181.094086 
	C118.933662,179.475006 120.688683,180.758148 122.298683,181.032990 
	C125.457436,181.572189 128.524597,181.803040 131.699631,181.062729 
	C135.225571,180.240601 138.223358,180.128754 136.908463,174.563904 
	C135.451538,168.397980 146.388397,157.615189 152.777405,157.956726 
	C154.654404,158.057068 157.038834,158.035385 156.269501,161.350311 
z"/>
<path fill="#000000" opacity="1.000000" stroke="none" 
	d="
M82.088837,109.213326 
	C81.957268,107.595009 81.227470,105.988060 82.976303,105.428131 
	C84.509811,104.937141 85.441368,106.136162 86.040833,107.381828 
	C88.379196,112.240822 89.487770,117.321228 88.381813,122.895500 
	C84.955429,119.085564 83.415283,114.399612 82.088837,109.213326 
z"/>
</svg>